PathFileType	4	(X/Y/Z)	Walk5.trc
DataRate	CameraRate	NumFrames	NumMarkers	Units	OrigDataRate	OrigDataStartFrame	OrigNumFrames
200.000000	200.000000	4	57	mm	200.000000	312	539
Frame#	Times		RBHD		C7		RASI		RACR1		RUA1		RFA1		LFA1		RTH3		RTH2		RWRU		RCAR		RElbow		RBack		LTH2		RTH1		LElbowM		RTB3		RMT1		RTH4		RMT5		RLFC		RTB1		RTB4		LTH4		RTB2		LACR1		LElbow		LWRU		LTH3		CLAV		LTB1		LPSI		T10		RPSI		RWRR		LTH1		LBHD		LLFC		LTB3		LTB4		RToe		LCAL		RFHD		LTB2		LMMAL		LASI		LWRR		LLMAL		RElbowM		LMT1		LToe		RLMAL		RMMAL		LMT5		LUA1		LCAR		RCAL
			X1	Y1	Z1	X2	Y2	Z2	X3	Y3	Z3	X4	Y4	Z4	X5	Y5	Z5	X6	Y6	Z6	X7	Y7	Z7	X8	Y8	Z8	X9	Y9	Z9	X10	Y10	Z10	X11	Y11	Z11	X12	Y12	Z12	X13	Y13	Z13	X14	Y14	Z14	X15	Y15	Z15	X16	Y16	Z16	X17	Y17	Z17	X18	Y18	Z18	X19	Y19	Z19	X20	Y20	Z20	X21	Y21	Z21	X22	Y22	Z22	X23	Y23	Z23	X24	Y24	Z24	X25	Y25	Z25	X26	Y26	Z26	X27	Y27	Z27	X28	Y28	Z28	X29	Y29	Z29	X30	Y30	Z30	X31	Y31	Z31	X32	Y32	Z32	X33	Y33	Z33	X34	Y34	Z34	X35	Y35	Z35	X36	Y36	Z36	X37	Y37	Z37	X38	Y38	Z38	X39	Y39	Z39	X40	Y40	Z40	X41	Y41	Z41	X42	Y42	Z42	X43	Y43	Z43	X44	Y44	Z44	X45	Y45	Z45	X46	Y46	Z46	X47	Y47	Z47	X48	Y48	Z48	X49	Y49	Z49	X50	Y50	Z50	X51	Y51	Z51	X52	Y52	Z52	X53	Y53	Z53	X54	Y54	Z54	X55	Y55	Z55	X56	Y56	Z56	X57	Y57	Z57

312	1.56	-123.07	1581.4	403.23	-153.02	1447.9	332.12	-76.987	949.43	452.07	-85.687	1395.6	473.28	-109.9	1207.3	559.22	-32.833	961.05	605.44	-165.53	996.72	6.3647	-175.75	559.34	457.75	-96.275	650.55	446.81	16.916	842.99	589.09	80.583	817.94	593.32	-132	1077.3	595.26	-224.53	1350.2	426.62	46.794	711.39	138.61	-152.55	744.84	489.57	-261.74	1132.6	124.4	-223.69	177.73	337.81	-150.76	38.619	294.36	-163.35	649.74	477.17	-184.04	32.361	383.15	-193.21	455.72	436.32	-175.52	362.19	350.06	-197.42	271.58	345.8	-15.5	674.5	108.2	-210.7	267.55	417.31	-122.77	1441.7	152.97	-246.26	1133.6	45.89	-181.78	878.24	12.857	28.789	597.05	123.36	-21.975	1365.1	309.35	106.22	399.75	197.78	-245.17	968.89	235.24	-254.65	1141.4	297.5	-253.38	974.1	339.75	77.11	879.67	555.42	-62.467	760.67	105.12	-120.77	1587.4	264.42	61.849	491.43	141.94	64.217	219.32	212.2	83.726	309.5	204.96	-97.117	27.191	319.98	-63.702	61.613	244.41	61.472	1609.3	373.77	48.019	312.28	142.14	20.603	119.36	274.72	-68.02	954.01	147.58	-107.24	894.74	42.427	-20.173	103.85	193.26	-150.56	1044.4	503.17	136.67	57.186	251.8	173.18	70.362	229.02	-302.11	84.855	370.14	-273.79	99.936	284.36	107.8	54.12	175.01	-195.43	1256.1	57.856	-108.73	841.61	-5.5033	-356.66	40.709	326.39
313	1.565	-116.92	1580.8	403.12	-146.76	1447.1	332.01	-71.01	948.44	452.28	-79.357	1395	473.35	-103.48	1207	559.64	-23.88	962	606.18	-161.55	995.1	6.5124	-172.08	558.79	457.65	-91.973	649.52	446.85	27.461	844.59	589.27	91.879	820.6	593.56	-124.6	1077	595.89	-218.21	1349.8	426.78	52.529	710.36	139.49	-147.84	744.16	489.78	-255.91	1131.8	125.1	-222.61	177.45	337.47	-150.59	38.543	294.27	-159.09	649.52	477.4	-183.99	32.348	383.08	-190.69	455.35	436.39	-173.54	361.63	349.89	-195.87	271.17	346.01	-8.9038	673.8	108.34	-209.17	267.35	417.11	-116.3	1440.6	152.92	-240.56	1132.8	46.363	-178.92	876.7	13.269	34.803	596.68	123.82	-15.606	1364.1	309.48	114.62	400.14	198.17	-239.2	968.57	235.07	-248.56	1140.7	297.86	-247.56	973.28	339.53	87.135	882.45	555.86	-55.849	760.04	105.18	-114.7	1586.3	264.24	67.326	490.17	142.73	79.433	218.38	212.68	95.416	309.14	205.52	-96.853	27.007	319.91	-42.909	56.556	245.43	67.535	1608.8	373.57	59.414	310.65	142.66	39.93	116.67	275.4	-61.662	952.95	147.82	-103.91	892.63	41.75	-0.9362	99.724	194.12	-143.05	1043.4	504.07	157.55	57.657	252.72	194.02	71.443	229.75	-301.82	85.043	369.95	-273.47	100.03	284.31	128.77	53.379	175.99	-189.25	1255	58.111	-106.25	839.39	-5.9858	-356.59	41.035	326.31
314	1.57	-110.75	1579.9	402.59	-140.23	1446.2	331.97	-66.169	946.96	452.74	-73.122	1394.5	473.34	-97.05	1206.6	560.08	-15.284	962.89	606.92	-157.3	993.45	6.6124	-168.27	558.33	457.76	-88.055	648.47	446.61	37.995	846.01	589.75	102.69	823.36	593.78	-117.35	1076.7	596.77	-211.75	1349.1	426.99	58.42	709.46	140.3	-142.73	743.38	489.94	-249.73	1131	125.84	-222.07	177.39	337.56	-150.48	38.415	294.24	-154.53	648.7	477.52	-183.92	32.313	383.02	-187.9	454.9	436.33	-171.37	361.11	349.85	-194.6	270.93	345.81	-2.6164	673	108.68	-207.61	267	416.95	-109.83	1439.8	152.9	-234.64	1131.5	47.374	-176.18	875.3	13.421	41.158	596	124.36	-9.159	1363.1	309.62	122.35	400.42	198.86	-232.8	967.77	235.18	-242.53	1139.9	297.78	-241.41	972.45	339.48	97.047	885.19	556.51	-49.706	759.19	105.09	-108.49	1585.3	264.05	72.525	488.63	143.6	94.471	217.37	213.22	106.81	308.78	206.22	-96.595	26.747	319.86	-22.114	52.192	246.63	73.776	1608.2	373.19	70.689	308.9	143.42	59.021	114.38	276	-55.209	952.15	148.34	-100.58	890.25	41.437	18.437	95.964	194.95	-135.22	1042.6	504.78	178.77	58.341	253.78	214.73	73.085	230.23	-301.65	85.299	369.81	-273.1	100.09	284.23	149.59	52.789	176.88	-183	1253.9	58.454	-104	836.98	-6.383	-356.59	41.439	326.13
315	1.575	-104.48	1579.2	402.09	-133.91	1445.6	331.74	-61.381	945.77	453.64	-66.845	1393.8	473.37	-90.412	1206.1	560.53	-6.5679	963.73	607.56	-153.41	991.82	6.898	-164.64	557.72	457.63	-83.866	647.46	446.36	48.223	848	590.17	113.21	825.99	594.18	-109.99	1076.2	597.96	-205.56	1348.4	427	64.626	708.51	140.93	-138.01	742.72	490.19	-243.95	1130	126.59	-221.49	177.43	337.48	-150.4	38.32	294.18	-150.41	648.25	477.73	-183.89	32.311	382.98	-184.72	454.53	436.23	-169.24	360.7	349.98	-192.82	270.54	345.66	3.4974	672.06	108.82	-206.34	266.8	417.01	-103.57	1438.5	152.97	-228.72	1130.6	48.204	-173.18	873.58	13.649	47.043	594.66	125.43	-2.8441	1362.2	309.81	130.22	400.82	199.54	-226.53	966.92	235	-236.17	1139.1	297.7	-235.49	971.53	339.21	106.74	887.65	556.96	-43.56	758.43	105.17	-102.19	1584	263.6	77.673	486.97	144.56	109.4	216.77	213.65	117.96	308.37	207.03	-96.568	26.421	319.56	-1.264	48.217	247.44	80.219	1607.5	372.73	81.782	307.36	144.14	77.888	112.43	276.65	-48.678	951.22	148.57	-97.478	887.85	41.275	37.902	92.763	195.79	-127.2	1041.8	505.41	199.6	59.576	254.53	235.38	74.285	230.73	-301.51	85.624	369.69	-272.76	100.23	284.12	170.45	53.028	177.42	-176.79	1252.7	58.716	-101.74	834.74	-6.9005	-356.49	41.874	326.02
